# xmcd CD database file
#
# Track frame offsets:
#	150
#	22939
#	40762
#	62165
#	79234
#	99690
#	120218
#	158397
#	174644
#	192099
#	211849
#	241415
#	256800
#	276779
#
# Disc length: 4198 seconds
#
# Revision: 4
# Processed by: cddbd v1.5.2PL0 Copyright (c) Steve Scherf et al.
# Submitted via: CDex 1.51
#
DISCID=ab10640e
DTITLE=Various Artist - Pinacolada vol2 CD1
DYEAR=2004
DGENRE=Jazz
TTITLE0=Al Jarreau - Mas Que Nada
TTITLE1=Matt Bianco - Wrong Side of The Street
TTITLE2=Brenda Russell - Soul Talkin
TTITLE3=Incognito - Don't Turn My Love Away (Venom and Bluey Street Soul Mix)
TTITLE4=Bootsy Collins Featuring MC Lyte - I'm Leavin' U (Gotta Go, Gotta Go)
TTITLE5=Funkstar Deluxe - It's Too Funky In Here (vs James Brown)
TTITLE6=Adam Plack and Claude Challe - Carmenita Lounging (Opera House Mix)
TTITLE7=Nicola Conte - Kind Of Sunshine
TTITLE8=Ilya - Bliss
TTITLE9=Marla Glen - Destiny (To Get Up Again)
TTITLE10=!DelaDap - Angelo
TTITLE11=Senor Coconut - Smooth Operator
TTITLE12=Rosario Flores - Como Quieres Que Te Quiera
TTITLE13=Victor Davies - Better Place
EXTD=YEAR: 2004
EXTT0=
EXTT1=
EXTT2=
EXTT3=
EXTT4=
EXTT5=
EXTT6=
EXTT7=
EXTT8=
EXTT9=
EXTT10=
EXTT11=
EXTT12=
EXTT13=
PLAYORDER=
